<svg width="20" height="20" viewBox="0 0 20 20" fill="none" xmlns="http://www.w3.org/2000/svg">
<path d="M13.4499 1.78027C13.4099 2.03026 13.3893 2.28028 13.3893 2.53027C13.3893 4.78027 15.2099 6.59961 17.4499 6.59961C17.6998 6.59959 17.9402 6.57026 18.1901 6.53027V14.5996C18.19 17.9904 16.1896 20 12.7897 20H5.40107C2.00017 20 -0.000179823 17.9904 -0.000301361 14.5996V7.2002C-0.000260268 3.80026 2.0001 1.78027 5.40107 1.78027H13.4499ZM13.6511 7.86035C13.3802 7.83037 13.1109 7.95014 12.9499 8.16992L10.5309 11.3008L7.75946 9.12012C7.58965 8.99035 7.38988 8.9391 7.19013 8.95996C6.99113 8.98996 6.81113 9.09977 6.69013 9.25977L3.73114 13.1104L3.66962 13.2002C3.49963 13.5192 3.57961 13.9294 3.87958 14.1504C4.01954 14.2404 4.16961 14.3007 4.33954 14.3008C4.57054 14.3108 4.78939 14.189 4.92939 14L7.44013 10.7695L10.2897 12.9102L10.3796 12.9697C10.6995 13.1396 11.0998 13.0605 11.3298 12.7598L14.2194 9.03027L14.1794 9.05078C14.3393 8.83087 14.3693 8.5507 14.2595 8.30078C14.1505 8.0509 13.9099 7.88048 13.6511 7.86035ZM17.5895 0C18.9195 0 19.9997 1.08016 19.9997 2.41016C19.9996 3.74008 18.9195 4.82031 17.5895 4.82031C16.2597 4.82017 15.1795 3.74 15.1794 2.41016C15.1794 1.08024 16.2597 0.000138996 17.5895 0Z" fill="#030229"/>
</svg>
