<svg width="153" height="21" viewBox="0 0 153 21" fill="none" xmlns="http://www.w3.org/2000/svg">
<path d="M145.717 15.7058H143.163V0H145.717V9.64721L149.77 5.27747H153L149.031 9.41501L152.916 15.7058H149.96L147.237 11.3149L145.717 12.8981V15.7058Z" fill="#262626"/>
<path d="M138.94 15.7058V5.2775H141.515V15.7058H138.94ZM140.207 3.18762C139.77 3.18762 139.397 3.03985 139.088 2.74432C138.792 2.43471 138.644 2.06176 138.644 1.62549C138.644 1.18922 138.792 0.823318 139.088 0.527779C139.397 0.232242 139.77 0.0844727 140.207 0.0844727C140.643 0.0844727 141.009 0.232242 141.304 0.527779C141.614 0.823318 141.769 1.18922 141.769 1.62549C141.769 2.06176 141.614 2.43471 141.304 2.74432C141.009 3.03985 140.643 3.18762 140.207 3.18762Z" fill="#262626"/>
<path d="M131.211 15.9802C130.197 15.9802 129.325 15.755 128.593 15.3047C127.875 14.8402 127.312 14.1999 126.904 13.3837C126.51 12.5674 126.313 11.6175 126.313 10.5338C126.313 9.45019 126.51 8.49321 126.904 7.66289C127.312 6.81849 127.897 6.15705 128.656 5.67856C129.416 5.20007 130.317 4.96082 131.359 4.96082C132.09 4.96082 132.759 5.10859 133.364 5.40413C133.969 5.68559 134.434 6.08668 134.757 6.60739V0H137.312V15.7058H134.947L134.778 14.0803C134.469 14.6714 133.99 15.1358 133.343 15.4735C132.71 15.8113 131.999 15.9802 131.211 15.9802ZM131.781 13.6159C132.386 13.6159 132.907 13.4892 133.343 13.2359C133.779 12.9685 134.117 12.5956 134.356 12.1171C134.609 11.6245 134.736 11.0686 134.736 10.4494C134.736 9.81609 134.609 9.26724 134.356 8.80282C134.117 8.32433 133.779 7.95139 133.343 7.684C132.907 7.40253 132.386 7.2618 131.781 7.2618C131.19 7.2618 130.676 7.40253 130.24 7.684C129.803 7.95139 129.466 8.32433 129.226 8.80282C129.001 9.28131 128.889 9.83017 128.889 10.4494C128.889 11.0686 129.001 11.6175 129.226 12.096C129.466 12.5745 129.803 12.9474 130.24 13.2148C130.676 13.4822 131.19 13.6159 131.781 13.6159Z" fill="#262626"/>
<path d="M122.745 15.7058V5.2775H125.32V15.7058H122.745ZM124.011 3.18762C123.575 3.18762 123.202 3.03985 122.892 2.74432C122.597 2.43471 122.449 2.06176 122.449 1.62549C122.449 1.18922 122.597 0.823318 122.892 0.527779C123.202 0.232242 123.575 0.0844727 124.011 0.0844727C124.448 0.0844727 124.813 0.232242 125.109 0.527779C125.419 0.823318 125.573 1.18922 125.573 1.62549C125.573 2.06176 125.419 2.43471 125.109 2.74432C124.813 3.03985 124.448 3.18762 124.011 3.18762Z" fill="#262626"/>
<path d="M115.016 15.9802C114.002 15.9802 113.13 15.755 112.398 15.3047C111.68 14.8402 111.117 14.1999 110.709 13.3837C110.315 12.5674 110.118 11.6175 110.118 10.5338C110.118 9.45019 110.315 8.49321 110.709 7.66289C111.117 6.81849 111.701 6.15705 112.461 5.67856C113.221 5.20007 114.122 4.96082 115.163 4.96082C115.895 4.96082 116.564 5.10859 117.169 5.40413C117.774 5.68559 118.238 6.08668 118.562 6.60739V0H121.116V15.7058H118.752L118.583 14.0803C118.273 14.6714 117.795 15.1358 117.148 15.4735C116.514 15.8113 115.804 15.9802 115.016 15.9802ZM115.585 13.6159C116.191 13.6159 116.711 13.4892 117.148 13.2359C117.584 12.9685 117.922 12.5956 118.161 12.1171C118.414 11.6245 118.541 11.0686 118.541 10.4494C118.541 9.81609 118.414 9.26724 118.161 8.80282C117.922 8.32433 117.584 7.95139 117.148 7.684C116.711 7.40253 116.191 7.2618 115.585 7.2618C114.994 7.2618 114.481 7.40253 114.044 7.684C113.608 7.95139 113.27 8.32433 113.031 8.80282C112.806 9.28131 112.693 9.83017 112.693 10.4494C112.693 11.0686 112.806 11.6175 113.031 12.096C113.27 12.5745 113.608 12.9474 114.044 13.2148C114.481 13.4822 114.994 13.6159 115.585 13.6159Z" fill="#262626"/>
<path d="M98.2277 10.2594C98.2277 9.24612 98.4318 8.34543 98.8399 7.55733C99.2621 6.75515 99.8461 6.12186 100.592 5.65744C101.338 5.19302 102.203 4.96082 103.189 4.96082C104.075 4.96082 104.835 5.15784 105.468 5.55189C106.102 5.93187 106.545 6.46665 106.798 7.15624L106.524 7.38845L106.735 5.27746H109.12V15.178C109.12 16.332 108.895 17.3312 108.445 18.1756C108.009 19.0341 107.382 19.6885 106.566 20.1388C105.764 20.6032 104.793 20.8354 103.653 20.8354C102.161 20.8354 100.937 20.4344 99.9798 19.6322C99.0229 18.83 98.4599 17.7323 98.291 16.339H100.866C100.951 17.0146 101.232 17.5423 101.711 17.9223C102.203 18.3023 102.851 18.4922 103.653 18.4922C104.54 18.4922 105.243 18.2319 105.764 17.7112C106.299 17.2045 106.566 16.515 106.566 15.6424V13.0459L106.862 13.3203C106.608 13.9818 106.144 14.5095 105.468 14.9036C104.793 15.2976 104.012 15.4946 103.125 15.4946C102.14 15.4946 101.282 15.2695 100.55 14.8191C99.818 14.3688 99.248 13.7496 98.8399 12.9615C98.4318 12.1734 98.2277 11.2727 98.2277 10.2594ZM100.824 10.1961C100.824 10.7871 100.937 11.3149 101.162 11.7793C101.401 12.2297 101.732 12.5885 102.154 12.8559C102.576 13.1233 103.069 13.257 103.632 13.257C104.223 13.257 104.73 13.1303 105.152 12.877C105.588 12.6096 105.919 12.2508 106.144 11.8004C106.383 11.336 106.503 10.8012 106.503 10.1961C106.503 9.59092 106.39 9.07021 106.165 8.63393C105.94 8.18359 105.609 7.83176 105.173 7.57844C104.751 7.32512 104.237 7.19846 103.632 7.19846C103.055 7.19846 102.555 7.33216 102.133 7.59955C101.711 7.85287 101.387 8.2047 101.162 8.65504C100.937 9.10539 100.824 9.61906 100.824 10.1961Z" fill="#262626"/>
<path d="M90.0188 15.7057H87.4434V5.27746H89.8288L90.0399 6.6285C90.3636 6.10779 90.821 5.69966 91.412 5.40412C92.0172 5.10859 92.6716 4.96082 93.3753 4.96082C94.6841 4.96082 95.6692 5.34783 96.3307 6.12186C97.0062 6.89589 97.3439 7.95138 97.3439 9.28834V15.7057H94.7685V9.90053C94.7685 9.02799 94.5715 8.38062 94.1774 7.95842C93.7834 7.52215 93.2486 7.30401 92.5731 7.30401C91.7709 7.30401 91.1447 7.55733 90.6943 8.06397C90.244 8.5706 90.0188 9.24612 90.0188 10.0905V15.7057Z" fill="#262626"/>
<path d="M80.0369 15.9802C78.9392 15.9802 78.0667 15.6846 77.4193 15.0936C76.786 14.4884 76.4694 13.7003 76.4694 12.7293C76.4694 11.7723 76.8001 11.0123 77.4615 10.4494C78.1371 9.87238 79.094 9.53462 80.3325 9.43611L83.4567 9.18279V8.95058C83.4567 8.47209 83.3653 8.09211 83.1823 7.81065C83.0134 7.51511 82.7672 7.30401 82.4435 7.17735C82.1198 7.03662 81.7398 6.96625 81.3035 6.96625C80.5436 6.96625 79.9595 7.12106 79.5514 7.43067C79.1433 7.72621 78.9392 8.14841 78.9392 8.69726H76.7438C76.7438 7.93731 76.9338 7.2829 77.3138 6.73405C77.7078 6.17112 78.2567 5.73484 78.9603 5.42523C79.6781 5.11562 80.5014 4.96082 81.4302 4.96082C82.3731 4.96082 83.1823 5.12969 83.8578 5.46745C84.5333 5.79114 85.0541 6.2837 85.42 6.94514C85.7859 7.59251 85.9688 8.40173 85.9688 9.37278V15.7057H83.7101L83.5201 14.1647C83.2949 14.6995 82.8586 15.1358 82.2113 15.4735C81.578 15.8113 80.8532 15.9802 80.0369 15.9802ZM80.8602 14.0381C81.6624 14.0381 82.2957 13.8129 82.7601 13.3625C83.2386 12.9122 83.4779 12.2859 83.4779 11.4838V10.9349L81.3035 11.1038C80.5014 11.1742 79.9314 11.343 79.5936 11.6104C79.2559 11.8637 79.087 12.2015 79.087 12.6237C79.087 13.0881 79.2418 13.4399 79.5514 13.6792C79.861 13.9184 80.2973 14.0381 80.8602 14.0381Z" fill="#262626"/>
<path d="M65.7708 10.4705C65.7708 9.40093 65.9889 8.45098 66.4252 7.62066C66.8755 6.79034 67.4877 6.14297 68.2618 5.67855C69.0499 5.20006 69.9576 4.96082 70.9849 4.96082C72.4063 4.96082 73.5674 5.33376 74.4681 6.07964C75.3828 6.81145 75.9106 7.80361 76.0513 9.05613H73.4759C73.3211 8.46506 73.0326 8.02175 72.6104 7.72621C72.2023 7.4166 71.6886 7.26179 71.0694 7.26179C70.5346 7.26179 70.0561 7.39549 69.6339 7.66288C69.2258 7.9162 68.9091 8.2821 68.684 8.76059C68.4588 9.23908 68.3462 9.80905 68.3462 10.4705C68.3462 11.1319 68.4518 11.7019 68.6629 12.1804C68.8739 12.6589 69.1765 13.0318 69.5706 13.2992C69.9787 13.5525 70.4572 13.6792 71.006 13.6792C71.6534 13.6792 72.1882 13.5244 72.6104 13.2148C73.0467 12.9052 73.3352 12.4619 73.4759 11.8849H76.0724C75.9598 12.7011 75.6713 13.4188 75.2069 14.0381C74.7566 14.6432 74.1725 15.1217 73.4548 15.4735C72.7371 15.8113 71.9208 15.9802 71.006 15.9802C69.9506 15.9802 69.0288 15.755 68.2407 15.3047C67.4526 14.8402 66.8404 14.1999 66.4041 13.3837C65.9819 12.5533 65.7708 11.5823 65.7708 10.4705Z" fill="#262626"/>
<path d="M57.583 15.7057H55.0076V5.27746H57.393L57.6041 6.6285C57.9278 6.10779 58.3851 5.69966 58.9762 5.40412C59.5814 5.10859 60.2358 4.96082 60.9394 4.96082C62.2483 4.96082 63.2334 5.34783 63.8948 6.12186C64.5703 6.89589 64.9081 7.95138 64.9081 9.28834V15.7057H62.3327V9.90053C62.3327 9.02799 62.1357 8.38062 61.7416 7.95842C61.3476 7.52215 60.8128 7.30401 60.1373 7.30401C59.3351 7.30401 58.7088 7.55733 58.2585 8.06397C57.8081 8.5706 57.583 9.24612 57.583 10.0905V15.7057Z" fill="#262626"/>
<path d="M47.6011 15.9802C46.5034 15.9802 45.6309 15.6846 44.9835 15.0936C44.3502 14.4884 44.0336 13.7003 44.0336 12.7293C44.0336 11.7723 44.3643 11.0123 45.0257 10.4494C45.7012 9.87238 46.6582 9.53462 47.8967 9.43611L51.0209 9.18279V8.95058C51.0209 8.47209 50.9294 8.09211 50.7465 7.81065C50.5776 7.51511 50.3313 7.30401 50.0076 7.17735C49.684 7.03662 49.304 6.96625 48.8677 6.96625C48.1078 6.96625 47.5237 7.12106 47.1156 7.43067C46.7075 7.72621 46.5034 8.14841 46.5034 8.69726H44.308C44.308 7.93731 44.498 7.2829 44.8779 6.73405C45.272 6.17112 45.8209 5.73484 46.5245 5.42523C47.2423 5.11562 48.0655 4.96082 48.9944 4.96082C49.9373 4.96082 50.7465 5.12969 51.422 5.46745C52.0975 5.79114 52.6182 6.2837 52.9841 6.94514C53.35 7.59251 53.533 8.40173 53.533 9.37278V15.7057H51.2742L51.0843 14.1647C50.8591 14.6995 50.4228 15.1358 49.7754 15.4735C49.1421 15.8113 48.4174 15.9802 47.6011 15.9802ZM48.4244 14.0381C49.2266 14.0381 49.8599 13.8129 50.3243 13.3625C50.8028 12.9122 51.042 12.2859 51.042 11.4838V10.9349L48.8677 11.1038C48.0655 11.1742 47.4956 11.343 47.1578 11.6104C46.8201 11.8637 46.6512 12.2015 46.6512 12.6237C46.6512 13.0881 46.806 13.4399 47.1156 13.6792C47.4252 13.9184 47.8615 14.0381 48.4244 14.0381Z" fill="#262626"/>
<path d="M44.2226 5.2353V7.62072H43.2726C42.3297 7.62072 41.5909 7.87404 41.0561 8.38067C40.5213 8.87324 40.2539 9.62616 40.2539 10.6394V15.7058H37.6785V5.29863H40.1061L40.3172 7.45184H40.0639C40.2046 6.76225 40.5354 6.19932 41.0561 5.76305C41.5768 5.32678 42.2523 5.10864 43.0826 5.10864C43.2656 5.10864 43.4485 5.11568 43.6315 5.12975C43.8144 5.14383 44.0115 5.17901 44.2226 5.2353Z" fill="#262626"/>
<g clip-path="url(#clip0_53_637)">
<path d="M33.7916 1.09175C33.1511 0.422169 31.0619 0.00524902 30.0618 0.00524902H16.9921C16.9631 0.00524902 16.9341 0.00590871 16.9051 0.00788776C16.9018 0.00788776 16.8978 0.00788776 16.8945 0.00788776C16.2381 0.0474688 15.6906 0.490116 15.4953 1.09109C15.4933 1.09637 15.492 1.10098 15.4907 1.10626C15.4425 1.25469 15.4175 1.41433 15.4175 1.57925V19.2489L15.4907 19.3221L16.7553 20.5874C16.9143 20.747 17.1102 20.846 17.3154 20.8856C17.3187 20.8856 17.3213 20.8862 17.3246 20.8869C17.355 20.8928 17.3853 20.8968 17.4156 20.9001C17.4236 20.9007 17.4315 20.9007 17.4387 20.9014C17.4585 20.9027 17.479 20.9053 17.4988 20.9053H30.0611C30.6984 20.9053 32.4841 20.7358 33 20.4396C33.2698 20.2846 33.5172 20.0939 33.7362 19.8749C34.3728 19.2383 34.7666 18.359 34.7666 17.3873V3.52334C34.7666 2.58065 34.3952 1.72241 33.791 1.09175H33.7916ZM27.7311 13.8705H20.8981V7.04078H27.7311V13.8705Z" fill="#00DAFC"/>
<path d="M9.23161 5.41402L15.4175 11.5999L20.5795 16.7619C20.786 16.9684 20.8922 17.2362 20.8981 17.506V17.5581C20.8961 17.6597 20.8796 17.7607 20.8493 17.8576C20.844 17.8741 20.8387 17.8906 20.8328 17.9065C20.78 18.0509 20.6956 18.1862 20.5795 18.3016L18.295 20.5861C18.0826 20.7985 17.8042 20.9054 17.5252 20.9054C17.2461 20.9054 16.9677 20.7985 16.7553 20.5861L15.4907 19.3221L5.40743 9.23821V19.8162C5.40743 20.4179 4.91992 20.9054 4.31895 20.9054H1.08848C0.486847 20.9054 0 20.4179 0 19.8162V1.09507C0 0.493438 0.486847 0.0065918 1.08848 0.0065918H19.8096C20.1105 0.0065918 20.3829 0.128633 20.5795 0.325879C20.7767 0.522464 20.8981 0.794254 20.8981 1.09507V4.32554C20.8981 4.92651 20.4113 5.41402 19.8096 5.41402H9.23161Z" fill="#01EF9C"/>
<path d="M19.8096 0.0065918H16.9051C16.9051 0.0065918 16.8978 0.0065918 16.8945 0.00725148C16.2381 0.0468325 15.6906 0.48948 15.4953 1.09045C15.4933 1.09573 15.492 1.10035 15.4907 1.10562C15.4425 1.25405 15.4175 1.4137 15.4175 1.57862V19.2482L15.4907 19.3215L16.7553 20.5867C16.7817 20.6131 16.8094 20.6382 16.8378 20.6606C16.8661 20.685 16.8958 20.7068 16.9262 20.7259C16.9413 20.7358 16.9565 20.7451 16.9717 20.7543C16.9869 20.7635 17.0027 20.7721 17.0179 20.7807H17.0185C17.0344 20.7886 17.0508 20.7965 17.0667 20.8044C17.0825 20.8117 17.099 20.819 17.1155 20.8256C17.1194 20.8269 17.1227 20.8288 17.1267 20.8302C17.1557 20.8414 17.1848 20.8513 17.2138 20.8599C17.2481 20.8704 17.2824 20.8783 17.3174 20.8856C17.3345 20.8889 17.3517 20.8915 17.3688 20.8942C17.3926 20.8975 17.4156 20.9001 17.4394 20.9014C17.4539 20.9021 17.4684 20.9034 17.4829 20.9041C17.4889 20.9047 17.4941 20.9054 17.4994 20.9054H20.8981V1.09507C20.8981 0.794254 20.7767 0.522464 20.5795 0.325879C20.3829 0.128633 20.1105 0.0065918 19.8096 0.0065918Z" fill="#3E32FD"/>
</g>
<defs>
<clipPath id="clip0_53_637">
<rect width="34.7673" height="20.9014" fill="white" transform="translate(0 0.00524902)"/>
</clipPath>
</defs>
</svg>
