<svg width="20" height="20" viewBox="0 0 20 20" fill="none" xmlns="http://www.w3.org/2000/svg">
<path d="M10.7167 0.00012207C11.473 0.00012207 12.1579 0.420189 12.5361 1.04016C12.72 1.34006 12.843 1.70988 12.8124 2.09973C12.792 2.39973 12.8833 2.70059 13.0468 2.98059C13.5681 3.83047 14.7237 4.15001 15.623 3.67004C16.6346 3.09039 17.9115 3.44016 18.4941 4.42981L19.1786 5.61047C19.7713 6.60046 19.4447 7.87057 18.4228 8.44055C17.5542 8.95059 17.2473 10.0806 17.7685 10.9406C17.932 11.2105 18.1162 11.4402 18.4023 11.5802C18.7599 11.7702 19.0362 12.0702 19.2304 12.3702C19.6083 12.9901 19.5777 13.7502 19.2099 14.42L18.4941 15.6202C18.1159 16.2601 17.411 16.6602 16.6855 16.6603C16.3279 16.6603 15.9294 16.5603 15.6025 16.3605C15.3368 16.1905 15.03 16.13 14.7031 16.13C13.6913 16.13 12.8431 16.9603 12.8124 17.9503C12.8123 19.1001 11.8722 19.9999 10.6972 20.0001H9.30657C8.12131 20 7.18168 19.1001 7.18158 17.9503C7.16114 16.9603 6.31245 16.13 5.30072 16.13C4.9635 16.13 4.65677 16.1905 4.4013 16.3605C4.07435 16.5603 3.66564 16.6603 3.31829 16.6603C2.58249 16.6603 1.87709 16.2602 1.49896 15.6202L0.79388 14.42C0.415837 13.7701 0.39536 12.9902 0.773372 12.3702C0.936841 12.0703 1.24341 11.7702 1.59075 11.5802C1.87686 11.4402 2.06158 11.2105 2.23529 10.9406C2.74626 10.0806 2.43891 8.95055 1.57025 8.44055C0.55869 7.87057 0.232107 6.6004 0.814388 5.61047L1.49896 4.42981C2.0917 3.44 3.35893 3.09024 4.38079 3.67004C5.26979 4.14999 6.42494 3.83036 6.94622 2.98059C7.10974 2.70059 7.20201 2.39973 7.18158 2.09973C7.16123 1.70987 7.2736 1.34007 7.46771 1.04016C7.84585 0.420239 8.53033 0.0201206 9.2763 0.00012207H10.7167ZM10.0117 7.17981C8.40742 7.18 7.10944 8.44011 7.10931 10.0099C7.10931 11.5798 8.40734 12.83 10.0117 12.8302C11.6161 12.8302 12.8837 11.5799 12.8837 10.0099C12.8836 8.44 11.616 7.17981 10.0117 7.17981Z" fill="#030229"/>
</svg>
